<svg width="43" height="37" viewBox="0 0 43 37" fill="none" xmlns="http://www.w3.org/2000/svg">
<path fill-rule="evenodd" clip-rule="evenodd" d="M23.5393 16.7815C24.073 16.9576 24.3629 17.533 24.1867 18.0667L21.1958 27.13C21.0197 27.6637 20.4443 27.9535 19.9107 27.7774C19.377 27.6013 19.0872 27.0259 19.2633 26.4923L22.2542 17.4289C22.4303 16.8953 23.0057 16.6054 23.5393 16.7815ZM18.7209 18.6807C19.0316 19.1489 18.9039 19.7804 18.4356 20.0911L15.0006 22.3701L18.4356 24.6491C18.9039 24.9598 19.0316 25.5913 18.7209 26.0595C18.4102 26.5278 17.7788 26.6556 17.3105 26.3449L12.5976 23.218C12.3134 23.0295 12.1426 22.7111 12.1426 22.3701C12.1426 22.0291 12.3134 21.7108 12.5976 21.5222L17.3105 18.3953C17.7788 18.0846 18.4102 18.2124 18.7209 18.6807ZM24.7589 18.9766C25.0564 18.4998 25.684 18.3544 26.1608 18.6518L30.7378 21.5068C31.0294 21.6886 31.2094 22.0054 31.2166 22.3489C31.2237 22.6925 31.057 23.0165 30.7733 23.2103L26.1963 26.3372C25.7322 26.6542 25.0991 26.535 24.7821 26.071C24.4651 25.6069 24.5843 24.9738 25.0483 24.6568L28.3388 22.4088L25.0838 20.3785C24.6069 20.081 24.4615 19.4534 24.7589 18.9766Z" fill="white"/>
<path fill-rule="evenodd" clip-rule="evenodd" d="M31.696 26.7103C34.2306 25.2701 35.253 23.5935 35.253 22.1876C35.253 20.7817 34.2306 19.1051 31.696 17.6649C29.2211 16.2586 25.6658 15.3244 21.6281 15.3244C17.5904 15.3244 14.0352 16.2586 11.5603 17.6649C9.02571 19.1051 8.00331 20.7817 8.00331 22.1876C8.00331 23.5935 9.02571 25.2701 11.5603 26.7103C14.0352 28.1166 17.5904 29.0509 21.6281 29.0509C25.6658 29.0509 29.2211 28.1166 31.696 26.7103ZM21.6281 31.0859C30.2768 31.0859 37.288 27.102 37.288 22.1876C37.288 17.2732 30.2768 13.2893 21.6281 13.2893C12.9794 13.2893 5.96826 17.2732 5.96826 22.1876C5.96826 27.102 12.9794 31.0859 21.6281 31.0859Z" fill="white"/>
<path fill-rule="evenodd" clip-rule="evenodd" d="M6.85675 22.171C7.33163 22.0779 7.80637 22.3321 7.99209 22.779C9.05163 25.3283 11.4391 26.8887 14.2012 27.8173C16.9443 28.7396 19.8858 28.9768 21.7591 28.9953C31.2978 28.8238 34.4123 25.1677 35.2924 22.8133C35.4662 22.3486 35.9497 22.077 36.4369 22.1703C36.9242 22.2636 37.2731 22.6947 37.2628 23.1907C37.1279 29.7112 33.998 33.2487 31.8997 34.2966C30.2925 35.3576 28.2569 35.9613 26.4255 36.2995C24.5875 36.6388 22.8598 36.7275 21.7867 36.7026C16.8704 37.0465 12.859 35.319 11.3111 34.3025C9.00725 33.2167 7.69938 31.0447 6.97028 28.9437C6.22886 26.807 6.02541 24.58 6.03499 23.1626C6.03826 22.6787 6.38188 22.264 6.85675 22.171ZM8.50258 26.922C8.60843 27.3727 8.73728 27.8281 8.89287 28.2765C9.54376 30.1522 10.6029 31.7427 12.2327 32.4867C12.2839 32.5101 12.3331 32.5377 12.3798 32.5692C13.5498 33.3598 17.1852 34.9969 21.6894 34.6694C21.7232 34.6669 21.757 34.6661 21.7908 34.667C22.7233 34.6923 24.3344 34.6161 26.0561 34.2982C27.7911 33.9779 29.5414 33.4294 30.8245 32.5677C30.8653 32.5402 30.9081 32.5158 30.9524 32.4946C31.9115 32.0355 33.7351 30.3908 34.6615 27.1364C32.3046 29.2274 28.3025 30.9154 21.7812 31.0303C21.772 31.0304 21.7629 31.0305 21.7537 31.0304C19.7677 31.0118 16.5829 30.765 13.5527 29.7463C11.7594 29.1433 9.95881 28.2478 8.50258 26.922Z" fill="white"/>
<path fill-rule="evenodd" clip-rule="evenodd" d="M22.3526 1.08152C22.6723 1.42369 22.6541 1.96027 22.3119 2.28C21.8679 2.69493 21.3528 3.3774 21.1466 4.13211C20.9548 4.83397 21.0167 5.61817 21.744 6.4245C22.7997 7.59498 23.1812 8.72216 23.0611 9.75287C22.9447 10.7526 22.376 11.4808 21.9041 11.922C21.562 12.2418 21.0254 12.2237 20.7056 11.8816C20.3858 11.5395 20.4039 11.0029 20.746 10.6831C21.0577 10.3917 21.3241 10.0076 21.3767 9.55668C21.4256 9.13679 21.3098 8.47518 20.4847 7.56034C19.3311 6.28135 19.1828 4.88511 19.5107 3.68507C19.8242 2.53789 20.5589 1.59702 21.1541 1.04088C21.4963 0.721156 22.0328 0.739349 22.3526 1.08152ZM17.223 2.92541C17.5497 3.26093 17.5425 3.79777 17.207 4.12446C16.953 4.37172 16.6061 4.82509 16.4121 5.32333C16.2192 5.81881 16.2218 6.22661 16.4196 6.54933C16.6181 6.87322 16.8526 7.14351 17.1161 7.4473L17.123 7.45529C17.1285 7.46161 17.134 7.46798 17.1395 7.47438C17.3804 7.75197 17.6857 8.10383 17.8821 8.51012C18.1065 8.97419 18.1901 9.50179 18.0272 10.1033C17.8756 10.663 17.525 11.2322 17.0037 11.8496C16.7015 12.2074 16.1665 12.2526 15.8087 11.9504C15.4509 11.6483 15.4058 11.1133 15.708 10.7555C16.1577 10.2229 16.3316 9.87645 16.3903 9.65996C16.4376 9.48525 16.4171 9.37615 16.3553 9.24823C16.2701 9.07191 16.1167 8.88333 15.8419 8.56648C15.831 8.55393 15.8199 8.54121 15.8088 8.52834C15.5615 8.24358 15.2466 7.88087 14.9737 7.43551C14.3946 6.49068 14.5329 5.47591 14.8318 4.70812C15.1296 3.9431 15.6305 3.29251 16.0239 2.90941C16.3594 2.58272 16.8963 2.58988 17.223 2.92541ZM26.6746 3.21778C26.9819 3.57117 26.9445 4.10675 26.5911 4.41404C26.299 4.66807 26.0045 5.07052 25.9107 5.53183C25.8259 5.94861 25.8817 6.51597 26.4667 7.21471C27.3441 8.26277 27.5788 9.30793 27.3624 10.2448C27.158 11.1294 26.5844 11.7718 26.1266 12.1464C25.7642 12.443 25.23 12.3895 24.9334 12.0271C24.6369 11.6646 24.6903 11.1304 25.0527 10.8339C25.3446 10.5951 25.6203 10.2511 25.71 9.86306C25.7876 9.52722 25.7609 9.01349 25.1663 8.30336C24.2794 7.24391 24.0524 6.15956 24.2488 5.19383C24.4362 4.27262 24.9868 3.56173 25.4783 3.13431C25.8317 2.82702 26.3673 2.8644 26.6746 3.21778Z" fill="white"/>
<path fill-rule="evenodd" clip-rule="evenodd" d="M38.6852 18.839C37.6579 18.774 36.4241 19.0267 35.5981 19.2949C35.0636 19.4684 34.4897 19.1758 34.3161 18.6413C34.1426 18.1068 34.4352 17.5328 34.9697 17.3593C35.9326 17.0466 37.4379 16.7209 38.8139 16.808C39.5029 16.8517 40.2446 17.0036 40.8756 17.3885C41.5428 17.7953 42.0392 18.4373 42.2076 19.3215C42.3745 20.1974 42.1606 20.9721 41.6978 21.5948C41.26 22.1837 40.635 22.5927 40.0203 22.88C38.7944 23.4532 37.3021 23.684 36.3111 23.7342C35.7499 23.7626 35.2719 23.3307 35.2434 22.7694C35.215 22.2082 35.647 21.7302 36.2082 21.7018C37.0526 21.659 38.2575 21.4577 39.1585 21.0365C39.6072 20.8267 39.9031 20.598 40.0645 20.3807C40.2009 20.1972 40.2647 19.9973 40.2085 19.7023C40.1539 19.4157 40.0219 19.2515 39.816 19.1259C39.5739 18.9783 39.1979 18.8715 38.6852 18.839Z" fill="white"/>
<path fill-rule="evenodd" clip-rule="evenodd" d="M4.44708 18.7753C5.47447 18.7102 6.70824 18.963 7.5342 19.2311C8.0687 19.4047 8.64267 19.1121 8.81621 18.5776C8.98974 18.0431 8.69712 17.4691 8.16262 17.2955C7.19972 16.9829 5.69443 16.6572 4.31847 16.7443C3.62945 16.7879 2.88773 16.9399 2.25673 17.3247C1.58957 17.7316 1.09313 18.3735 0.924693 19.2578C0.757861 20.1337 0.971691 20.9084 1.43454 21.531C1.8723 22.12 2.49734 22.529 3.112 22.8163C4.33793 23.3895 5.83021 23.6203 6.82119 23.6705C7.38243 23.6989 7.86045 23.267 7.88888 22.7057C7.9173 22.1445 7.48536 21.6665 6.92412 21.638C6.07977 21.5953 4.87482 21.394 3.97387 20.9728C3.52508 20.763 3.22927 20.5342 3.06779 20.317C2.9314 20.1335 2.8676 19.9336 2.9238 19.6386C2.97839 19.352 3.11038 19.1878 3.31631 19.0622C3.55839 18.9145 3.93442 18.8078 4.44708 18.7753Z" fill="white"/>
</svg>
