<svg width="108" height="94" viewBox="0 0 108 94" fill="none" xmlns="http://www.w3.org/2000/svg">
<path fill-rule="evenodd" clip-rule="evenodd" d="M59.0677 41.6084C60.4459 42.0632 61.1945 43.5492 60.7397 44.9275L53.0152 68.335C52.5603 69.7133 51.0743 70.4619 49.6961 70.007C48.3178 69.5522 47.5693 68.0662 48.0241 66.688L55.7486 43.2804C56.2034 41.9022 57.6894 41.1536 59.0677 41.6084ZM46.6234 46.5133C47.4257 47.7227 47.0958 49.3535 45.8864 50.1559L37.0151 56.0418L45.8864 61.9277C47.0958 62.73 47.4257 64.3609 46.6234 65.5703C45.821 66.7797 44.1901 67.1096 42.9807 66.3072L30.8089 58.2316C30.075 57.7447 29.6338 56.9225 29.6338 56.0418C29.6338 55.1611 30.075 54.339 30.8088 53.8521L42.9807 45.7764C44.1901 44.974 45.821 45.3039 46.6234 46.5133ZM62.2174 47.2776C62.9856 46.0462 64.6065 45.6706 65.8379 46.4387L77.6588 53.8121C78.4118 54.2818 78.8768 55.0998 78.8953 55.9871C78.9138 56.8744 78.4832 57.7111 77.7504 58.2117L65.9295 66.2873C64.7311 67.106 63.096 66.7982 62.2772 65.5998C61.4585 64.4014 61.7663 62.7663 62.9647 61.9476L71.4629 56.1419L63.0563 50.8981C61.8249 50.13 61.4493 48.509 62.2174 47.2776Z" fill="#B29BF8"/>
<path fill-rule="evenodd" clip-rule="evenodd" d="M80.1348 67.2506C86.6808 63.531 89.3213 59.2011 89.3213 55.5701C89.3213 51.939 86.6808 47.6091 80.1348 43.8895C73.7431 40.2576 64.5611 37.8447 54.1332 37.8447C43.7052 37.8447 34.5232 40.2576 28.1315 43.8895C21.5855 47.6091 18.945 51.939 18.945 55.5701C18.945 59.2011 21.5855 63.531 28.1315 67.2506C34.5232 70.8825 43.7052 73.2955 54.1332 73.2955C64.5611 73.2955 73.7431 70.8825 80.1348 67.2506ZM54.1332 78.5513C76.4698 78.5513 94.5771 68.2622 94.5771 55.5701C94.5771 42.8779 76.4698 32.5889 54.1332 32.5889C31.7966 32.5889 13.6892 42.8779 13.6892 55.5701C13.6892 68.2622 31.7966 78.5513 54.1332 78.5513Z" fill="#B29BF8"/>
<path fill-rule="evenodd" clip-rule="evenodd" d="M15.9818 55.5281C17.2082 55.2877 18.4343 55.9443 18.914 57.0984C21.6504 63.6823 27.8165 67.7123 34.9499 70.1107C42.0345 72.4926 49.6312 73.1052 54.4693 73.153C79.1045 72.7099 87.1481 63.2675 89.4212 57.1871C89.8699 55.987 91.1186 55.2854 92.377 55.5264C93.6354 55.7674 94.5366 56.8807 94.5101 58.1617C94.1617 75.0018 86.0782 84.138 80.659 86.8444C76.508 89.5846 71.2509 91.1438 66.5211 92.017C61.7742 92.8934 57.3122 93.1225 54.5407 93.0583C41.8435 93.9463 31.4835 89.4849 27.4859 86.8597C21.5358 84.0554 18.158 78.446 16.275 73.0196C14.3602 67.5015 13.8347 61.7497 13.8595 58.0892C13.8679 56.8394 14.7554 55.7685 15.9818 55.5281ZM20.2324 67.7985C20.5058 68.9623 20.8385 70.1386 21.2404 71.2966C22.9214 76.1409 25.6568 80.2485 29.8659 82.1701C29.9983 82.2305 30.1253 82.3017 30.2458 82.3832C33.2676 84.4249 42.6565 88.6531 54.2894 87.8071C54.3765 87.8007 54.4638 87.7988 54.5511 87.8011C56.9596 87.8662 61.1204 87.6695 65.5669 86.8486C70.0479 86.0213 74.5683 84.6048 77.882 82.3791C77.9875 82.3083 78.0979 82.2452 78.2125 82.1903C80.6894 81.0046 85.3991 76.757 87.7917 68.352C81.7047 73.7525 71.3687 78.1118 54.5264 78.4086C54.5027 78.409 54.4791 78.4091 54.4555 78.4089C49.3263 78.361 41.1009 77.7236 33.275 75.0925C28.6436 73.5353 23.9933 71.2226 20.2324 67.7985Z" fill="#B29BF8"/>
<path fill-rule="evenodd" clip-rule="evenodd" d="M56.0023 1.06051C56.828 1.94422 56.781 3.33001 55.8973 4.15575C54.7505 5.22738 53.4203 6.98995 52.8877 8.93912C52.3923 10.7518 52.5523 12.7771 54.4306 14.8596C57.1571 17.8825 58.1423 20.7936 57.8323 23.4556C57.5316 26.0374 56.0629 27.9183 54.8439 29.0577C53.9604 29.8836 52.5746 29.8369 51.7487 28.9533C50.9228 28.0698 50.9695 26.684 51.8531 25.8581C52.6581 25.1055 53.3462 24.1134 53.4818 22.9489C53.6081 21.8644 53.3093 20.1557 51.1782 17.793C48.1989 14.4899 47.8158 10.8838 48.6627 7.78456C49.4724 4.82181 51.3699 2.39187 52.907 0.955559C53.7907 0.129812 55.1765 0.1768 56.0023 1.06051ZM42.7543 5.82262C43.5981 6.68917 43.5796 8.07563 42.713 8.91936C42.0572 9.55793 41.1611 10.7288 40.6602 12.0156C40.162 13.2953 40.1687 14.3485 40.6795 15.1819C41.1922 16.0184 41.7976 16.7165 42.4782 17.5011L42.4961 17.5217C42.5102 17.538 42.5245 17.5545 42.5389 17.571C43.1609 18.2879 43.9494 19.1967 44.4566 20.246C45.036 21.4445 45.252 22.8071 44.8313 24.3606C44.4398 25.8061 43.5345 27.2762 42.1879 28.8708C41.4076 29.7948 40.0259 29.9114 39.1018 29.1311C38.1778 28.3507 38.0612 26.9691 38.8416 26.045C40.003 24.6696 40.4523 23.7747 40.6038 23.2156C40.726 22.7644 40.6731 22.4826 40.5134 22.1522C40.2933 21.6969 39.8972 21.2098 39.1874 20.3915C39.1593 20.3591 39.1308 20.3263 39.1019 20.293C38.4634 19.5576 37.6501 18.6208 36.9452 17.4706C35.4496 15.0305 35.8067 12.4097 36.5787 10.4267C37.3478 8.45097 38.6414 6.77071 39.6576 5.78131C40.5241 4.93757 41.9106 4.95607 42.7543 5.82262ZM67.1646 6.57772C67.9582 7.4904 67.8617 8.87362 66.949 9.66723C66.1945 10.3233 65.4339 11.3627 65.1916 12.5541C64.9726 13.6305 65.1167 15.0958 66.6275 16.9004C68.8936 19.6072 69.4997 22.3064 68.9408 24.726C68.413 27.0106 66.9316 28.6699 65.7493 29.6372C64.8132 30.4031 63.4335 30.2651 62.6677 29.3291C61.9018 28.393 62.0398 27.0133 62.9758 26.2474C63.7295 25.6308 64.4418 24.7424 64.6733 23.7401C64.8737 22.8728 64.8047 21.546 63.2692 19.712C60.9785 16.9758 60.3923 14.1753 60.8996 11.6811C61.3835 9.30199 62.8056 7.46602 64.075 6.36214C64.9877 5.56853 66.3709 5.66505 67.1646 6.57772Z" fill="#B29BF8"/>
<path fill-rule="evenodd" clip-rule="evenodd" d="M98.1872 46.9197C95.5338 46.7517 92.3475 47.4044 90.2143 48.0969C88.8339 48.5451 87.3515 47.7894 86.9033 46.409C86.4551 45.0285 87.2109 43.5462 88.5913 43.098C91.0781 42.2906 94.9658 41.4493 98.5194 41.6744C100.299 41.787 102.215 42.1795 103.844 43.1734C105.567 44.2242 106.849 45.8821 107.284 48.1658C107.715 50.4279 107.163 52.4287 105.968 54.0368C104.837 55.5578 103.223 56.614 101.635 57.3562C98.4691 58.8364 94.6151 59.4326 92.0557 59.5622C90.6062 59.6356 89.3717 58.5201 89.2983 57.0706C89.2249 55.6211 90.3404 54.3865 91.7899 54.3131C93.9706 54.2027 97.0825 53.6828 99.4094 52.595C100.568 52.0531 101.332 51.4624 101.749 50.9013C102.102 50.4274 102.266 49.9112 102.121 49.1493C101.98 48.409 101.639 47.9849 101.108 47.6606C100.482 47.2793 99.5113 47.0035 98.1872 46.9197Z" fill="#B29BF8"/>
<path fill-rule="evenodd" clip-rule="evenodd" d="M9.75636 46.7577C12.4098 46.5897 15.5961 47.2424 17.7293 47.935C19.1097 48.3831 20.5921 47.6274 21.0403 46.247C21.4885 44.8666 20.7327 43.3842 19.3523 42.936C16.8655 42.1286 12.9778 41.2874 9.42422 41.5124C7.64472 41.625 5.7291 42.0175 4.09945 43.0114C2.37642 44.0622 1.09428 45.7201 0.659277 48.0038C0.228407 50.2659 0.780655 52.2667 1.97602 53.8748C3.1066 55.3958 4.72088 56.4521 6.30831 57.1942C9.47447 58.6744 13.3285 59.2706 15.8879 59.4002C17.3374 59.4736 18.5719 58.3581 18.6453 56.9086C18.7187 55.4591 17.6032 54.2245 16.1537 54.1511C13.973 54.0407 10.8611 53.5208 8.53423 52.433C7.37516 51.8911 6.61119 51.3004 6.19415 50.7393C5.84189 50.2655 5.67714 49.7492 5.82227 48.9873C5.96327 48.247 6.30413 47.8229 6.83597 47.4986C7.46121 47.1173 8.43235 46.8415 9.75636 46.7577Z" fill="#B29BF8"/>
</svg>
