<svg width="17" height="17" viewBox="0 0 17 17" fill="none" xmlns="http://www.w3.org/2000/svg">
<path fill-rule="evenodd" clip-rule="evenodd" d="M1.26855 8.97266C3.50855 5.63966 5.50855 3.97266 8.26855 3.97266C11.0296 3.97266 13.0296 5.63966 15.2686 8.97266C13.0296 12.3057 11.0296 13.9727 8.26855 13.9727C5.50855 13.9727 3.50855 12.3057 1.26855 8.97266ZM8.26855 12.9727C10.4776 12.9727 12.2686 11.1817 12.2686 8.97266C12.2686 6.76366 10.4776 4.97266 8.26855 4.97266C6.05955 4.97266 4.26855 6.76366 4.26855 8.97266C4.26855 11.1817 6.05955 12.9727 8.26855 12.9727ZM8.26855 10.9727C7.16455 10.9727 6.26855 10.0777 6.26855 8.97266C6.26855 7.86866 7.16455 6.97266 8.26855 6.97266C9.37255 6.97266 10.2686 7.86866 10.2686 8.97266C10.2686 10.0777 9.37255 10.9727 8.26855 10.9727Z" fill="white"/>
</svg>
