<svg width="17" height="17" viewBox="0 0 17 17" fill="none" xmlns="http://www.w3.org/2000/svg">
<path fill-rule="evenodd" clip-rule="evenodd" d="M8.09069 6.1699L10.3957 8.4749C10.4137 8.3639 10.4297 8.2519 10.4297 8.1359C10.4297 7.0319 9.53269 6.1359 8.42969 6.1359C8.31369 6.1359 8.20069 6.1509 8.09069 6.1699ZM10.3067 11.6399L8.76469 10.0979C8.65469 10.1169 8.54469 10.1359 8.42969 10.1359C7.32569 10.1359 6.42969 9.2409 6.42969 8.1359C6.42969 8.0209 6.44769 7.9099 6.46769 7.8009L4.92569 6.2589C4.61969 6.8199 4.42969 7.4509 4.42969 8.1359C4.42969 10.3449 6.22069 12.1359 8.42969 12.1359C9.11369 12.1359 9.74569 11.9449 10.3067 11.6399ZM13.9997 13.4939L13.0797 14.4139L11.1387 12.4719C10.3007 12.9009 9.41569 13.1359 8.42969 13.1359C5.66969 13.1359 3.66969 11.4689 1.42969 8.1359C2.24669 6.9189 3.03369 5.9409 3.83669 5.1699L2.07969 3.4139L2.99969 2.4939L13.9997 13.4939ZM6.54769 4.6269L5.70869 3.7879C6.54969 3.3589 7.43969 3.1359 8.42969 3.1359C11.1907 3.1359 13.1907 4.8029 15.4297 8.1359C14.6137 9.3499 13.8297 10.3369 13.0287 11.1079L11.9387 10.0179C12.2417 9.4549 12.4297 8.8199 12.4297 8.1359C12.4297 5.9269 10.6387 4.1359 8.42969 4.1359C7.74469 4.1359 7.11169 4.3239 6.54769 4.6269Z" fill="white"/>
</svg>
