<?xml version="1.0" standalone="no"?>
<!DOCTYPE svg PUBLIC "-//W3C//DTD SVG 20010904//EN"
 "http://www.w3.org/TR/2001/REC-SVG-20010904/DTD/svg10.dtd">
<svg version="1.0" xmlns="http://www.w3.org/2000/svg"
 width="1024.000000pt" height="1024.000000pt" viewBox="0 0 1024.000000 1024.000000"
 preserveAspectRatio="xMidYMid meet">

<g transform="translate(0.000000,1024.000000) scale(0.100000,-0.100000)"
fill="#000000" stroke="none">
<path d="M0 5120 l0 -5120 5120 0 5120 0 0 5120 0 5120 -5120 0 -5120 0 0
-5120z m7286 3468 c485 -111 836 -471 919 -942 13 -77 15 -250 15 -1280 0
-1292 2 -1239 -54 -1361 -54 -117 -151 -222 -1025 -1099 -482 -483 -898 -899
-924 -924 -99 -95 -209 -159 -336 -195 l-76 -22 -1355 -3 c-934 -2 -1381 0
-1438 8 -120 16 -243 54 -357 110 -337 167 -577 502 -625 872 -7 58 -10 664
-8 1983 l3 1900 27 97 c94 343 327 621 640 768 99 46 235 86 333 99 39 5 982
8 2130 7 1857 -2 2067 -4 2131 -18z"/>
<path d="M3110 8194 c-155 -24 -249 -59 -363 -134 -113 -74 -200 -177 -259
-307 -66 -147 -62 -14 -66 -1993 -2 -1256 0 -1827 8 -1903 21 -206 81 -338
215 -472 87 -87 180 -143 310 -187 l70 -23 1315 -3 c723 -2 1338 0 1367 3 l52
6 4 717 c4 812 0 769 87 947 104 214 283 369 515 446 l70 24 693 3 693 3 -3
1117 c-3 1116 -3 1117 -25 1195 -74 261 -261 451 -528 534 l-90 28 -2020 1
c-1111 1 -2031 0 -2045 -2z m3568 -1514 c96 -21 169 -117 160 -211 -7 -68 -44
-120 -109 -153 l-53 -26 -1553 0 c-1688 0 -1591 -3 -1652 53 -80 73 -79 221 2
296 56 51 15 50 1639 50 1021 1 1533 -2 1566 -9z m-1663 -1221 c160 -44 199
-256 63 -346 l-42 -28 -751 0 -751 0 -43 28 c-52 34 -81 92 -81 162 0 92 48
160 130 183 50 15 1423 15 1475 1z"/>
<path d="M6475 4896 c-154 -49 -263 -165 -294 -314 -9 -46 -17 -1062 -8 -1062
1 0 315 313 697 695 l695 695 -525 -1 c-395 0 -535 -3 -565 -13z"/>
</g>
</svg>
