<?xml version="1.0" standalone="no"?>
<!DOCTYPE svg PUBLIC "-//W3C//DTD SVG 20010904//EN"
 "http://www.w3.org/TR/2001/REC-SVG-20010904/DTD/svg10.dtd">
<svg version="1.0" xmlns="http://www.w3.org/2000/svg"
 width="500.000000pt" height="500.000000pt" viewBox="0 0 500.000000 500.000000"
 preserveAspectRatio="xMidYMid meet">

<g transform="translate(0.000000,500.000000) scale(0.100000,-0.100000)"
fill="#000000" stroke="none">
<path d="M2355 4614 c-596 -46 -1077 -240 -1438 -580 -309 -293 -468 -637
-468 -1018 0 -368 143 -697 430 -982 l88 -89 -63 -450 c-35 -247 -63 -460 -64
-472 0 -23 18 -16 871 332 l277 113 63 -13 c222 -46 639 -47 889 -2 852 153
1475 681 1595 1350 26 143 17 384 -18 519 -170 650 -816 1148 -1643 1267 -134
20 -415 33 -519 25z m475 -359 c581 -86 1058 -381 1270 -788 196 -374 142
-780 -150 -1125 -203 -240 -551 -438 -925 -527 -313 -74 -683 -78 -1000 -11
l-70 15 -348 -141 c-191 -78 -349 -139 -351 -137 -2 2 2 47 10 99 39 278 63
454 61 455 -18 8 -162 131 -213 182 -240 241 -361 555 -324 844 77 601 687
1068 1500 1149 119 12 414 4 540 -15z"/>
</g>
</svg>
