<svg width="22" height="23" viewBox="0 0 22 23" fill="none" xmlns="http://www.w3.org/2000/svg">
<path fill-rule="evenodd" clip-rule="evenodd" d="M12.4809 17.3441H18.8375V6.11172H13.2206L12.2636 7.06872L11 8.33234V18.0852L11.2172 17.868L11.7397 17.3441H12.4809ZM7.88975 13.9932C8.415 13.5133 8.71613 12.775 8.71613 11.84V11.0713C8.71613 9.34022 7.69175 8.26497 6.08712 8.26497C4.48113 8.26497 3.46088 9.33609 3.46088 11.0713V11.84C3.46088 13.5711 4.48113 14.6367 6.08712 14.6367C6.41988 14.6367 6.73338 14.5817 7.00837 14.48L7.458 15.1317H8.668L7.88975 13.9932ZM11 5.80509L12.4809 4.32422H20.625V19.133H12.4809L11 20.6125L9.51912 19.133H1.375V4.32422H9.51912L11 5.80509ZM15.0462 9.90906H15.0943L15.7626 12.1324H14.3738L15.0462 9.90906ZM13.7125 14.3558L14.1483 12.9423H15.9812L16.4116 14.3558H17.568L15.7351 8.85718H14.4577L12.6125 14.3558H13.7125ZM6.08658 9.27257C5.26295 9.27257 4.65245 9.87069 4.65245 11.0669V11.8576C4.65245 13.0813 5.24508 13.6836 6.05495 13.6959C6.19933 13.6959 6.32445 13.6684 6.44133 13.6203L5.75383 12.6262H6.87858L7.2017 13.0621C7.3997 12.7802 7.5207 12.3801 7.5207 11.8576V11.0669C7.5207 9.87069 6.9102 9.27257 6.08658 9.27257Z" fill="white"/>
</svg>
