<svg width="23" height="23" viewBox="0 0 23 23" fill="none" xmlns="http://www.w3.org/2000/svg">
<path fill-rule="evenodd" clip-rule="evenodd" d="M17.6615 16.9783V17.0361H16.6303V14.986H14.5733V12.9317H15.6004V13.9588H16.6303V12.9317H17.6615V16.9783ZM14.5609 17.0581H15.6004V16.02H14.5609V17.0581ZM17.6615 11.9335H16.6303V10.8775H15.6004V11.9335H14.5747V10.8761H12.5039V8.81084H11.4589V6.74422H12.5039V3.63672H10.4359V4.69822H11.4589V5.72259H10.4359V8.81084H11.4589V9.84347H10.4359V10.8678H11.4589V12.9317H13.5352V13.9588H12.5039H11.4589V12.9317H10.4359V11.9335V10.8761H6.31228V11.9335C6.31228 11.9348 5.96853 11.9348 5.28103 11.9335V10.8761H3.22266V12.9317H6.31228V11.9335H7.34903V12.9317H10.4359V13.9588H11.4589V14.9901H10.4359V16.0172L11.4589 16.0227V18.077H12.5039V14.9956H13.5352V18.0825H14.5527V19.111H13.5352V20.1243H15.6004V19.1068H16.6303V18.0893H17.6615V19.1123H16.6303V20.1367H19.7227V18.077H18.6928V12.9317H17.6615V11.9335ZM5.28103 18.0701H7.34903V16.0213H5.28103V18.0701ZM15.6004 7.76997H17.6615V5.72259H15.6004V7.76997ZM5.28103 7.76997H7.34903V5.72809H5.28103V7.76997ZM11.4589 20.1271H12.5039V19.1096H11.4589V20.1271ZM10.4359 19.1055H11.4589V18.0797H10.4359V19.1055ZM4.27041 19.0917H8.36653V14.9956H4.27041V19.0917ZM3.22266 20.1326H9.41016V13.9602H3.22266V20.1326ZM17.6615 10.8678H19.7227V12.9317C19.3803 12.9317 19.0365 12.9331 18.6928 12.9317V11.9335H17.6615V10.8678ZM14.5815 8.79434H18.6777V4.69822H14.5815V8.79434ZM13.5352 9.84347H19.7227V3.63672H13.5352V9.84347ZM4.26766 8.79984H8.36378V4.70372H4.26766V8.79984ZM3.22266 9.84347H9.41016V3.63672H3.22266V9.84347Z" fill="white"/>
</svg>
