<svg width="274" height="274" viewBox="0 0 274 274" fill="none" xmlns="http://www.w3.org/2000/svg">
<path d="M0.980469 38.7077C0.980469 17.8651 17.8767 0.96875 38.7194 0.96875H235.7C256.542 0.96875 273.438 17.865 273.438 38.7076V235.688C273.438 256.53 256.542 273.427 235.7 273.427H38.7194C17.8768 273.427 0.980469 256.53 0.980469 235.688V38.7077Z" fill="#B29BF8"/>
<path fill-rule="evenodd" clip-rule="evenodd" d="M148.44 125.823C151.477 126.825 153.127 130.099 152.124 133.137L135.102 184.719C134.1 187.756 130.825 189.406 127.788 188.404C124.751 187.401 123.101 184.127 124.103 181.09L141.126 129.507C142.128 126.47 145.402 124.82 148.44 125.823ZM121.017 136.631C122.785 139.296 122.058 142.89 119.393 144.658L99.843 157.629L119.393 170.599C122.058 172.368 122.785 175.962 121.017 178.627C119.248 181.292 115.654 182.019 112.989 180.251L86.1666 162.455C84.5494 161.382 83.5772 159.57 83.5771 157.629C83.5771 155.688 84.5494 153.876 86.1666 152.803L112.989 135.007C115.654 133.239 119.248 133.966 121.017 136.631ZM155.381 138.316C157.073 135.602 160.646 134.774 163.359 136.467L189.408 152.716C191.068 153.751 192.093 155.553 192.133 157.509C192.174 159.464 191.225 161.308 189.61 162.411L163.561 180.207C160.92 182.011 157.317 181.333 155.513 178.692C153.708 176.051 154.387 172.447 157.028 170.643L175.755 157.849L157.229 146.294C154.516 144.601 153.688 141.029 155.381 138.316Z" fill="white"/>
<path fill-rule="evenodd" clip-rule="evenodd" d="M194.865 182.328C209.29 174.132 215.109 164.59 215.109 156.588C215.109 148.587 209.29 139.045 194.865 130.848C180.779 122.845 160.545 117.527 137.566 117.527C114.586 117.527 94.3517 122.845 80.2666 130.848C65.8413 139.045 60.0225 148.587 60.0225 156.588C60.0225 164.59 65.8413 174.132 80.2666 182.328C94.3517 190.332 114.586 195.649 137.566 195.649C160.545 195.649 180.779 190.332 194.865 182.328ZM137.566 207.231C186.788 207.231 226.691 184.558 226.691 156.588C226.691 128.619 186.788 105.945 137.566 105.945C88.3431 105.945 48.4404 128.619 48.4404 156.588C48.4404 184.558 88.3431 207.231 137.566 207.231Z" fill="white"/>
<path fill-rule="evenodd" clip-rule="evenodd" d="M53.4927 156.499C56.1954 155.97 58.8973 157.416 59.9543 159.96C65.9844 174.469 79.5725 183.349 95.2923 188.635C110.904 193.883 127.645 195.233 138.306 195.339C192.594 194.362 210.32 173.555 215.329 160.155C216.318 157.511 219.07 155.964 221.843 156.496C224.616 157.027 226.602 159.48 226.543 162.303C225.775 199.413 207.962 219.546 196.02 225.51C186.873 231.549 175.288 234.985 164.865 236.909C154.404 238.84 144.571 239.345 138.464 239.204C110.483 241.161 87.6534 231.329 78.8439 225.544C65.7318 219.364 58.2884 207.003 54.1388 195.045C49.9192 182.885 48.7613 170.21 48.8158 162.143C48.8344 159.389 50.79 157.029 53.4927 156.499ZM62.8596 183.539C63.462 186.104 64.1953 188.696 65.0809 191.248C68.7853 201.923 74.8131 210.975 84.0888 215.209C84.3804 215.343 84.6604 215.5 84.926 215.679C91.585 220.178 112.275 229.496 137.91 227.632C138.102 227.618 138.294 227.613 138.487 227.618C143.794 227.762 152.963 227.328 162.762 225.519C172.636 223.696 182.598 220.575 189.9 215.67C190.133 215.514 190.376 215.375 190.629 215.254C196.087 212.641 206.465 203.281 211.738 184.759C198.324 196.66 175.547 206.266 138.432 206.92C138.38 206.921 138.328 206.922 138.276 206.921C126.973 206.816 108.847 205.411 91.6013 199.613C81.3951 196.181 71.1475 191.085 62.8596 183.539Z" fill="white"/>
<path fill-rule="evenodd" clip-rule="evenodd" d="M141.685 36.4686C143.504 38.416 143.401 41.4698 141.454 43.2895C138.926 45.651 135.995 49.5351 134.821 53.8304C133.73 57.8249 134.082 62.2881 138.221 66.8771C144.23 73.5387 146.401 79.9538 145.717 85.8199C145.055 91.5095 141.818 95.6544 139.132 98.1652C137.185 99.9852 134.131 99.8822 132.311 97.9352C130.491 95.9881 130.594 92.9343 132.541 91.1142C134.315 89.4558 135.832 87.2696 136.131 84.7033C136.409 82.3136 135.75 78.5482 131.054 73.3415C124.489 66.0624 123.644 58.116 125.511 51.2862C127.295 44.7572 131.477 39.4025 134.864 36.2373C136.811 34.4176 139.865 34.5212 141.685 36.4686ZM112.491 46.9627C114.35 48.8723 114.309 51.9276 112.4 53.7869C110.954 55.1941 108.98 57.7744 107.876 60.61C106.778 63.4299 106.793 65.7509 107.918 67.5876C109.048 69.4309 110.382 70.9692 111.882 72.6982L111.922 72.7437C111.953 72.7797 111.984 72.8159 112.016 72.8523C113.387 74.4321 115.124 76.4347 116.242 78.7471C117.519 81.3882 117.995 84.3909 117.068 87.8142C116.205 90.9997 114.21 94.2393 111.242 97.7533C109.523 99.7896 106.478 100.046 104.442 98.3268C102.405 96.6072 102.149 93.5625 103.868 91.5261C106.428 88.4952 107.418 86.5232 107.752 85.2911C108.021 84.2968 107.904 83.6759 107.552 82.9478C107.067 81.9443 106.195 80.8711 104.63 79.0678C104.568 78.9963 104.506 78.924 104.442 78.8507C103.035 77.2301 101.243 75.1658 99.6893 72.6311C96.3935 67.2538 97.1805 61.4784 98.8816 57.1087C100.577 52.7547 103.427 49.052 105.666 46.8717C107.576 45.0124 110.631 45.0531 112.491 46.9627ZM166.283 48.6267C168.032 50.6379 167.819 53.6861 165.808 55.435C164.145 56.8808 162.469 59.1712 161.935 61.7967C161.453 64.1687 161.77 67.3977 165.099 71.3745C170.093 77.3393 171.429 83.2876 170.197 88.6194C169.034 93.6539 165.77 97.3105 163.164 99.4423C161.101 101.13 158.061 100.826 156.373 98.7632C154.685 96.7004 154.989 93.66 157.052 91.9722C158.713 90.6133 160.283 88.6557 160.793 86.447C161.234 84.5356 161.082 81.6119 157.699 77.5703C152.651 71.5407 151.359 65.3693 152.477 59.873C153.543 54.6301 156.677 50.5842 159.475 48.1516C161.486 46.4028 164.534 46.6155 166.283 48.6267Z" fill="white"/>
<path fill-rule="evenodd" clip-rule="evenodd" d="M234.646 137.525C228.799 137.155 221.777 138.593 217.076 140.12C214.034 141.107 210.767 139.442 209.78 136.4C208.792 133.358 210.457 130.091 213.499 129.104C218.98 127.324 227.547 125.47 235.378 125.966C239.299 126.215 243.521 127.08 247.112 129.27C250.909 131.585 253.734 135.239 254.693 140.271C255.642 145.256 254.425 149.665 251.791 153.209C249.3 156.561 245.742 158.889 242.244 160.524C235.267 163.786 226.774 165.1 221.134 165.385C217.94 165.547 215.219 163.089 215.057 159.895C214.896 156.7 217.354 153.98 220.548 153.818C225.354 153.575 232.211 152.429 237.339 150.032C239.893 148.838 241.577 147.536 242.496 146.3C243.272 145.255 243.635 144.118 243.315 142.439C243.004 140.807 242.253 139.873 241.081 139.158C239.704 138.318 237.563 137.71 234.646 137.525Z" fill="white"/>
<path fill-rule="evenodd" clip-rule="evenodd" d="M39.7737 137.17C45.6209 136.8 52.6426 138.238 57.3434 139.764C60.3854 140.752 63.6521 139.086 64.6397 136.044C65.6274 133.002 63.962 129.736 60.92 128.748C55.4398 126.969 46.8727 125.115 39.0417 125.611C35.1203 125.859 30.8989 126.724 27.3077 128.914C23.5107 131.23 20.6853 134.883 19.7267 139.916C18.7772 144.901 19.9942 149.31 22.6284 152.854C25.1198 156.205 28.6771 158.533 32.1753 160.168C39.1525 163.43 47.6455 164.744 53.2855 165.03C56.4797 165.192 59.2002 162.733 59.362 159.539C59.5238 156.345 57.0655 153.624 53.8713 153.463C49.0658 153.219 42.2081 152.074 37.0805 149.676C34.5263 148.482 32.8427 147.18 31.9237 145.944C31.1475 144.9 30.7844 143.762 31.1042 142.083C31.4149 140.452 32.1661 139.517 33.3381 138.803C34.7159 137.962 36.856 137.355 39.7737 137.17Z" fill="white"/>
</svg>
